<?xml version="1.0" encoding="utf-8" standalone="no"?>
<!DOCTYPE svg PUBLIC "-//W3C//DTD SVG 1.1//EN"
  "http://www.w3.org/Graphics/SVG/1.1/DTD/svg11.dtd">
<svg xmlns:xlink="http://www.w3.org/1999/xlink" width="314.73671pt" height="279.16684pt" viewBox="0 0 314.73671 279.16684" xmlns="http://www.w3.org/2000/svg" version="1.1">
 <metadata>
  <rdf:RDF xmlns:dc="http://purl.org/dc/elements/1.1/" xmlns:cc="http://creativecommons.org/ns#" xmlns:rdf="http://www.w3.org/1999/02/22-rdf-syntax-ns#">
   <cc:Work>
    <dc:type rdf:resource="http://purl.org/dc/dcmitype/StillImage"/>
    <dc:date>2023-10-09T20:53:10.166854</dc:date>
    <dc:format>image/svg+xml</dc:format>
    <dc:creator>
     <cc:Agent>
      <dc:title>Matplotlib v3.7.3, https://matplotlib.org/</dc:title>
     </cc:Agent>
    </dc:creator>
   </cc:Work>
  </rdf:RDF>
 </metadata>
 <defs>
  <style type="text/css">*{stroke-linejoin: round; stroke-linecap: butt}</style>
 </defs>
 <g id="figure_1">
  <g id="patch_1">
   <path d="M 0 279.16684 
L 314.73671 279.16684 
L 314.73671 0 
L 0 0 
z
" style="fill: #ffffff; stroke: #ffffff; stroke-linejoin: miter"/>
  </g>
  <g id="axes_1">
   <g id="patch_2">
    <path d="M 163.53671 151.2 
L 307.53671 151.2 
L 307.53671 7.2 
L 163.53671 7.2 
z
" style="fill: #ffffff"/>
   </g>
   <g id="matplotlib.axis_1">
    <g id="xtick_1">
     <g id="line2d_1">
      <path d="M 174.073296 151.2 
" style="fill: none; stroke: #000000; stroke-width: 1.5; stroke-linecap: square"/>
      <defs>
       <path id="m6e54c2d576" d="M 0 0 
L 0 2.75 
" style="stroke: #333333; stroke-width: 0.8"/>
      </defs>
      <g>
       <use xlink:href="#m6e54c2d576" x="174.073296" y="151.2" style="stroke: #333333; stroke-width: 0.8"/>
      </g>
     </g>
     <g id="text_1">
      <!-- I don't really use any editor -->
      <g style="fill: #4d4d4d" transform="translate(63.660286 213.135909) rotate(-25) scale(0.088 -0.088)">
       <defs>
        <path id="DejaVuSans-49" d="M 628 4666 
L 1259 4666 
L 1259 0 
L 628 0 
L 628 4666 
z
" transform="scale(0.015625)"/>
        <path id="DejaVuSans-20" transform="scale(0.015625)"/>
        <path id="DejaVuSans-64" d="M 2906 2969 
L 2906 4863 
L 3481 4863 
L 3481 0 
L 2906 0 
L 2906 525 
Q 2725 213 2448 61 
Q 2172 -91 1784 -91 
Q 1150 -91 751 415 
Q 353 922 353 1747 
Q 353 2572 751 3078 
Q 1150 3584 1784 3584 
Q 2172 3584 2448 3432 
Q 2725 3281 2906 2969 
z
M 947 1747 
Q 947 1113 1208 752 
Q 1469 391 1925 391 
Q 2381 391 2643 752 
Q 2906 1113 2906 1747 
Q 2906 2381 2643 2742 
Q 2381 3103 1925 3103 
Q 1469 3103 1208 2742 
Q 947 2381 947 1747 
z
" transform="scale(0.015625)"/>
        <path id="DejaVuSans-6f" d="M 1959 3097 
Q 1497 3097 1228 2736 
Q 959 2375 959 1747 
Q 959 1119 1226 758 
Q 1494 397 1959 397 
Q 2419 397 2687 759 
Q 2956 1122 2956 1747 
Q 2956 2369 2687 2733 
Q 2419 3097 1959 3097 
z
M 1959 3584 
Q 2709 3584 3137 3096 
Q 3566 2609 3566 1747 
Q 3566 888 3137 398 
Q 2709 -91 1959 -91 
Q 1206 -91 779 398 
Q 353 888 353 1747 
Q 353 2609 779 3096 
Q 1206 3584 1959 3584 
z
" transform="scale(0.015625)"/>
        <path id="DejaVuSans-6e" d="M 3513 2113 
L 3513 0 
L 2938 0 
L 2938 2094 
Q 2938 2591 2744 2837 
Q 2550 3084 2163 3084 
Q 1697 3084 1428 2787 
Q 1159 2491 1159 1978 
L 1159 0 
L 581 0 
L 581 3500 
L 1159 3500 
L 1159 2956 
Q 1366 3272 1645 3428 
Q 1925 3584 2291 3584 
Q 2894 3584 3203 3211 
Q 3513 2838 3513 2113 
z
" transform="scale(0.015625)"/>
        <path id="DejaVuSans-27" d="M 1147 4666 
L 1147 2931 
L 616 2931 
L 616 4666 
L 1147 4666 
z
" transform="scale(0.015625)"/>
        <path id="DejaVuSans-74" d="M 1172 4494 
L 1172 3500 
L 2356 3500 
L 2356 3053 
L 1172 3053 
L 1172 1153 
Q 1172 725 1289 603 
Q 1406 481 1766 481 
L 2356 481 
L 2356 0 
L 1766 0 
Q 1100 0 847 248 
Q 594 497 594 1153 
L 594 3053 
L 172 3053 
L 172 3500 
L 594 3500 
L 594 4494 
L 1172 4494 
z
" transform="scale(0.015625)"/>
        <path id="DejaVuSans-72" d="M 2631 2963 
Q 2534 3019 2420 3045 
Q 2306 3072 2169 3072 
Q 1681 3072 1420 2755 
Q 1159 2438 1159 1844 
L 1159 0 
L 581 0 
L 581 3500 
L 1159 3500 
L 1159 2956 
Q 1341 3275 1631 3429 
Q 1922 3584 2338 3584 
Q 2397 3584 2469 3576 
Q 2541 3569 2628 3553 
L 2631 2963 
z
" transform="scale(0.015625)"/>
        <path id="DejaVuSans-65" d="M 3597 1894 
L 3597 1613 
L 953 1613 
Q 991 1019 1311 708 
Q 1631 397 2203 397 
Q 2534 397 2845 478 
Q 3156 559 3463 722 
L 3463 178 
Q 3153 47 2828 -22 
Q 2503 -91 2169 -91 
Q 1331 -91 842 396 
Q 353 884 353 1716 
Q 353 2575 817 3079 
Q 1281 3584 2069 3584 
Q 2775 3584 3186 3129 
Q 3597 2675 3597 1894 
z
M 3022 2063 
Q 3016 2534 2758 2815 
Q 2500 3097 2075 3097 
Q 1594 3097 1305 2825 
Q 1016 2553 972 2059 
L 3022 2063 
z
" transform="scale(0.015625)"/>
        <path id="DejaVuSans-61" d="M 2194 1759 
Q 1497 1759 1228 1600 
Q 959 1441 959 1056 
Q 959 750 1161 570 
Q 1363 391 1709 391 
Q 2188 391 2477 730 
Q 2766 1069 2766 1631 
L 2766 1759 
L 2194 1759 
z
M 3341 1997 
L 3341 0 
L 2766 0 
L 2766 531 
Q 2569 213 2275 61 
Q 1981 -91 1556 -91 
Q 1019 -91 701 211 
Q 384 513 384 1019 
Q 384 1609 779 1909 
Q 1175 2209 1959 2209 
L 2766 2209 
L 2766 2266 
Q 2766 2663 2505 2880 
Q 2244 3097 1772 3097 
Q 1472 3097 1187 3025 
Q 903 2953 641 2809 
L 641 3341 
Q 956 3463 1253 3523 
Q 1550 3584 1831 3584 
Q 2591 3584 2966 3190 
Q 3341 2797 3341 1997 
z
" transform="scale(0.015625)"/>
        <path id="DejaVuSans-6c" d="M 603 4863 
L 1178 4863 
L 1178 0 
L 603 0 
L 603 4863 
z
" transform="scale(0.015625)"/>
        <path id="DejaVuSans-79" d="M 2059 -325 
Q 1816 -950 1584 -1140 
Q 1353 -1331 966 -1331 
L 506 -1331 
L 506 -850 
L 844 -850 
Q 1081 -850 1212 -737 
Q 1344 -625 1503 -206 
L 1606 56 
L 191 3500 
L 800 3500 
L 1894 763 
L 2988 3500 
L 3597 3500 
L 2059 -325 
z
" transform="scale(0.015625)"/>
        <path id="DejaVuSans-75" d="M 544 1381 
L 544 3500 
L 1119 3500 
L 1119 1403 
Q 1119 906 1312 657 
Q 1506 409 1894 409 
Q 2359 409 2629 706 
Q 2900 1003 2900 1516 
L 2900 3500 
L 3475 3500 
L 3475 0 
L 2900 0 
L 2900 538 
Q 2691 219 2414 64 
Q 2138 -91 1772 -91 
Q 1169 -91 856 284 
Q 544 659 544 1381 
z
M 1991 3584 
L 1991 3584 
z
" transform="scale(0.015625)"/>
        <path id="DejaVuSans-73" d="M 2834 3397 
L 2834 2853 
Q 2591 2978 2328 3040 
Q 2066 3103 1784 3103 
Q 1356 3103 1142 2972 
Q 928 2841 928 2578 
Q 928 2378 1081 2264 
Q 1234 2150 1697 2047 
L 1894 2003 
Q 2506 1872 2764 1633 
Q 3022 1394 3022 966 
Q 3022 478 2636 193 
Q 2250 -91 1575 -91 
Q 1294 -91 989 -36 
Q 684 19 347 128 
L 347 722 
Q 666 556 975 473 
Q 1284 391 1588 391 
Q 1994 391 2212 530 
Q 2431 669 2431 922 
Q 2431 1156 2273 1281 
Q 2116 1406 1581 1522 
L 1381 1569 
Q 847 1681 609 1914 
Q 372 2147 372 2553 
Q 372 3047 722 3315 
Q 1072 3584 1716 3584 
Q 2034 3584 2315 3537 
Q 2597 3491 2834 3397 
z
" transform="scale(0.015625)"/>
        <path id="DejaVuSans-69" d="M 603 3500 
L 1178 3500 
L 1178 0 
L 603 0 
L 603 3500 
z
M 603 4863 
L 1178 4863 
L 1178 4134 
L 603 4134 
L 603 4863 
z
" transform="scale(0.015625)"/>
       </defs>
       <use xlink:href="#DejaVuSans-49"/>
       <use xlink:href="#DejaVuSans-20" x="29.492188"/>
       <use xlink:href="#DejaVuSans-64" x="61.279297"/>
       <use xlink:href="#DejaVuSans-6f" x="124.755859"/>
       <use xlink:href="#DejaVuSans-6e" x="185.9375"/>
       <use xlink:href="#DejaVuSans-27" x="249.316406"/>
       <use xlink:href="#DejaVuSans-74" x="276.806641"/>
       <use xlink:href="#DejaVuSans-20" x="316.015625"/>
       <use xlink:href="#DejaVuSans-72" x="347.802734"/>
       <use xlink:href="#DejaVuSans-65" x="386.666016"/>
       <use xlink:href="#DejaVuSans-61" x="448.189453"/>
       <use xlink:href="#DejaVuSans-6c" x="509.46875"/>
       <use xlink:href="#DejaVuSans-6c" x="537.251953"/>
       <use xlink:href="#DejaVuSans-79" x="565.035156"/>
       <use xlink:href="#DejaVuSans-20" x="624.214844"/>
       <use xlink:href="#DejaVuSans-75" x="656.001953"/>
       <use xlink:href="#DejaVuSans-73" x="719.380859"/>
       <use xlink:href="#DejaVuSans-65" x="771.480469"/>
       <use xlink:href="#DejaVuSans-20" x="833.003906"/>
       <use xlink:href="#DejaVuSans-61" x="864.791016"/>
       <use xlink:href="#DejaVuSans-6e" x="926.070312"/>
       <use xlink:href="#DejaVuSans-79" x="989.449219"/>
       <use xlink:href="#DejaVuSans-20" x="1048.628906"/>
       <use xlink:href="#DejaVuSans-65" x="1080.416016"/>
       <use xlink:href="#DejaVuSans-64" x="1141.939453"/>
       <use xlink:href="#DejaVuSans-69" x="1205.416016"/>
       <use xlink:href="#DejaVuSans-74" x="1233.199219"/>
       <use xlink:href="#DejaVuSans-6f" x="1272.408203"/>
       <use xlink:href="#DejaVuSans-72" x="1333.589844"/>
      </g>
     </g>
    </g>
    <g id="xtick_2">
     <g id="line2d_2">
      <path d="M 191.634271 151.2 
" style="fill: none; stroke: #000000; stroke-width: 1.5; stroke-linecap: square"/>
      <g>
       <use xlink:href="#m6e54c2d576" x="191.634271" y="151.2" style="stroke: #333333; stroke-width: 0.8"/>
      </g>
     </g>
     <g id="text_2">
      <!-- PyCharm, Matlab -->
      <g style="fill: #4d4d4d" transform="translate(122.781138 193.75622) rotate(-25) scale(0.088 -0.088)">
       <defs>
        <path id="DejaVuSans-50" d="M 1259 4147 
L 1259 2394 
L 2053 2394 
Q 2494 2394 2734 2622 
Q 2975 2850 2975 3272 
Q 2975 3691 2734 3919 
Q 2494 4147 2053 4147 
L 1259 4147 
z
M 628 4666 
L 2053 4666 
Q 2838 4666 3239 4311 
Q 3641 3956 3641 3272 
Q 3641 2581 3239 2228 
Q 2838 1875 2053 1875 
L 1259 1875 
L 1259 0 
L 628 0 
L 628 4666 
z
" transform="scale(0.015625)"/>
        <path id="DejaVuSans-43" d="M 4122 4306 
L 4122 3641 
Q 3803 3938 3442 4084 
Q 3081 4231 2675 4231 
Q 1875 4231 1450 3742 
Q 1025 3253 1025 2328 
Q 1025 1406 1450 917 
Q 1875 428 2675 428 
Q 3081 428 3442 575 
Q 3803 722 4122 1019 
L 4122 359 
Q 3791 134 3420 21 
Q 3050 -91 2638 -91 
Q 1578 -91 968 557 
Q 359 1206 359 2328 
Q 359 3453 968 4101 
Q 1578 4750 2638 4750 
Q 3056 4750 3426 4639 
Q 3797 4528 4122 4306 
z
" transform="scale(0.015625)"/>
        <path id="DejaVuSans-68" d="M 3513 2113 
L 3513 0 
L 2938 0 
L 2938 2094 
Q 2938 2591 2744 2837 
Q 2550 3084 2163 3084 
Q 1697 3084 1428 2787 
Q 1159 2491 1159 1978 
L 1159 0 
L 581 0 
L 581 4863 
L 1159 4863 
L 1159 2956 
Q 1366 3272 1645 3428 
Q 1925 3584 2291 3584 
Q 2894 3584 3203 3211 
Q 3513 2838 3513 2113 
z
" transform="scale(0.015625)"/>
        <path id="DejaVuSans-6d" d="M 3328 2828 
Q 3544 3216 3844 3400 
Q 4144 3584 4550 3584 
Q 5097 3584 5394 3201 
Q 5691 2819 5691 2113 
L 5691 0 
L 5113 0 
L 5113 2094 
Q 5113 2597 4934 2840 
Q 4756 3084 4391 3084 
Q 3944 3084 3684 2787 
Q 3425 2491 3425 1978 
L 3425 0 
L 2847 0 
L 2847 2094 
Q 2847 2600 2669 2842 
Q 2491 3084 2119 3084 
Q 1678 3084 1418 2786 
Q 1159 2488 1159 1978 
L 1159 0 
L 581 0 
L 581 3500 
L 1159 3500 
L 1159 2956 
Q 1356 3278 1631 3431 
Q 1906 3584 2284 3584 
Q 2666 3584 2933 3390 
Q 3200 3197 3328 2828 
z
" transform="scale(0.015625)"/>
        <path id="DejaVuSans-2c" d="M 750 794 
L 1409 794 
L 1409 256 
L 897 -744 
L 494 -744 
L 750 256 
L 750 794 
z
" transform="scale(0.015625)"/>
        <path id="DejaVuSans-4d" d="M 628 4666 
L 1569 4666 
L 2759 1491 
L 3956 4666 
L 4897 4666 
L 4897 0 
L 4281 0 
L 4281 4097 
L 3078 897 
L 2444 897 
L 1241 4097 
L 1241 0 
L 628 0 
L 628 4666 
z
" transform="scale(0.015625)"/>
        <path id="DejaVuSans-62" d="M 3116 1747 
Q 3116 2381 2855 2742 
Q 2594 3103 2138 3103 
Q 1681 3103 1420 2742 
Q 1159 2381 1159 1747 
Q 1159 1113 1420 752 
Q 1681 391 2138 391 
Q 2594 391 2855 752 
Q 3116 1113 3116 1747 
z
M 1159 2969 
Q 1341 3281 1617 3432 
Q 1894 3584 2278 3584 
Q 2916 3584 3314 3078 
Q 3713 2572 3713 1747 
Q 3713 922 3314 415 
Q 2916 -91 2278 -91 
Q 1894 -91 1617 61 
Q 1341 213 1159 525 
L 1159 0 
L 581 0 
L 581 4863 
L 1159 4863 
L 1159 2969 
z
" transform="scale(0.015625)"/>
       </defs>
       <use xlink:href="#DejaVuSans-50"/>
       <use xlink:href="#DejaVuSans-79" x="60.302734"/>
       <use xlink:href="#DejaVuSans-43" x="119.482422"/>
       <use xlink:href="#DejaVuSans-68" x="189.306641"/>
       <use xlink:href="#DejaVuSans-61" x="252.685547"/>
       <use xlink:href="#DejaVuSans-72" x="313.964844"/>
       <use xlink:href="#DejaVuSans-6d" x="353.328125"/>
       <use xlink:href="#DejaVuSans-2c" x="450.740234"/>
       <use xlink:href="#DejaVuSans-20" x="482.527344"/>
       <use xlink:href="#DejaVuSans-4d" x="514.314453"/>
       <use xlink:href="#DejaVuSans-61" x="600.59375"/>
       <use xlink:href="#DejaVuSans-74" x="661.873047"/>
       <use xlink:href="#DejaVuSans-6c" x="701.082031"/>
       <use xlink:href="#DejaVuSans-61" x="728.865234"/>
       <use xlink:href="#DejaVuSans-62" x="790.144531"/>
      </g>
     </g>
    </g>
    <g id="xtick_3">
     <g id="line2d_3">
      <path d="M 209.195247 151.2 
" style="fill: none; stroke: #000000; stroke-width: 1.5; stroke-linecap: square"/>
      <g>
       <use xlink:href="#m6e54c2d576" x="209.195247" y="151.2" style="stroke: #333333; stroke-width: 0.8"/>
      </g>
     </g>
     <g id="text_3">
      <!-- Spyder, Matlab, Jupyter lab/notebooks, R -->
      <g style="fill: #4d4d4d" transform="translate(45.057218 238.188297) rotate(-25) scale(0.088 -0.088)">
       <defs>
        <path id="DejaVuSans-53" d="M 3425 4513 
L 3425 3897 
Q 3066 4069 2747 4153 
Q 2428 4238 2131 4238 
Q 1616 4238 1336 4038 
Q 1056 3838 1056 3469 
Q 1056 3159 1242 3001 
Q 1428 2844 1947 2747 
L 2328 2669 
Q 3034 2534 3370 2195 
Q 3706 1856 3706 1288 
Q 3706 609 3251 259 
Q 2797 -91 1919 -91 
Q 1588 -91 1214 -16 
Q 841 59 441 206 
L 441 856 
Q 825 641 1194 531 
Q 1563 422 1919 422 
Q 2459 422 2753 634 
Q 3047 847 3047 1241 
Q 3047 1584 2836 1778 
Q 2625 1972 2144 2069 
L 1759 2144 
Q 1053 2284 737 2584 
Q 422 2884 422 3419 
Q 422 4038 858 4394 
Q 1294 4750 2059 4750 
Q 2388 4750 2728 4690 
Q 3069 4631 3425 4513 
z
" transform="scale(0.015625)"/>
        <path id="DejaVuSans-70" d="M 1159 525 
L 1159 -1331 
L 581 -1331 
L 581 3500 
L 1159 3500 
L 1159 2969 
Q 1341 3281 1617 3432 
Q 1894 3584 2278 3584 
Q 2916 3584 3314 3078 
Q 3713 2572 3713 1747 
Q 3713 922 3314 415 
Q 2916 -91 2278 -91 
Q 1894 -91 1617 61 
Q 1341 213 1159 525 
z
M 3116 1747 
Q 3116 2381 2855 2742 
Q 2594 3103 2138 3103 
Q 1681 3103 1420 2742 
Q 1159 2381 1159 1747 
Q 1159 1113 1420 752 
Q 1681 391 2138 391 
Q 2594 391 2855 752 
Q 3116 1113 3116 1747 
z
" transform="scale(0.015625)"/>
        <path id="DejaVuSans-4a" d="M 628 4666 
L 1259 4666 
L 1259 325 
Q 1259 -519 939 -900 
Q 619 -1281 -91 -1281 
L -331 -1281 
L -331 -750 
L -134 -750 
Q 284 -750 456 -515 
Q 628 -281 628 325 
L 628 4666 
z
" transform="scale(0.015625)"/>
        <path id="DejaVuSans-2f" d="M 1625 4666 
L 2156 4666 
L 531 -594 
L 0 -594 
L 1625 4666 
z
" transform="scale(0.015625)"/>
        <path id="DejaVuSans-6b" d="M 581 4863 
L 1159 4863 
L 1159 1991 
L 2875 3500 
L 3609 3500 
L 1753 1863 
L 3688 0 
L 2938 0 
L 1159 1709 
L 1159 0 
L 581 0 
L 581 4863 
z
" transform="scale(0.015625)"/>
        <path id="DejaVuSans-52" d="M 2841 2188 
Q 3044 2119 3236 1894 
Q 3428 1669 3622 1275 
L 4263 0 
L 3584 0 
L 2988 1197 
Q 2756 1666 2539 1819 
Q 2322 1972 1947 1972 
L 1259 1972 
L 1259 0 
L 628 0 
L 628 4666 
L 2053 4666 
Q 2853 4666 3247 4331 
Q 3641 3997 3641 3322 
Q 3641 2881 3436 2590 
Q 3231 2300 2841 2188 
z
M 1259 4147 
L 1259 2491 
L 2053 2491 
Q 2509 2491 2742 2702 
Q 2975 2913 2975 3322 
Q 2975 3731 2742 3939 
Q 2509 4147 2053 4147 
L 1259 4147 
z
" transform="scale(0.015625)"/>
       </defs>
       <use xlink:href="#DejaVuSans-53"/>
       <use xlink:href="#DejaVuSans-70" x="63.476562"/>
       <use xlink:href="#DejaVuSans-79" x="126.953125"/>
       <use xlink:href="#DejaVuSans-64" x="186.132812"/>
       <use xlink:href="#DejaVuSans-65" x="249.609375"/>
       <use xlink:href="#DejaVuSans-72" x="311.132812"/>
       <use xlink:href="#DejaVuSans-2c" x="352.246094"/>
       <use xlink:href="#DejaVuSans-20" x="384.033203"/>
       <use xlink:href="#DejaVuSans-4d" x="415.820312"/>
       <use xlink:href="#DejaVuSans-61" x="502.099609"/>
       <use xlink:href="#DejaVuSans-74" x="563.378906"/>
       <use xlink:href="#DejaVuSans-6c" x="602.587891"/>
       <use xlink:href="#DejaVuSans-61" x="630.371094"/>
       <use xlink:href="#DejaVuSans-62" x="691.650391"/>
       <use xlink:href="#DejaVuSans-2c" x="755.126953"/>
       <use xlink:href="#DejaVuSans-20" x="786.914062"/>
       <use xlink:href="#DejaVuSans-4a" x="818.701172"/>
       <use xlink:href="#DejaVuSans-75" x="848.193359"/>
       <use xlink:href="#DejaVuSans-70" x="911.572266"/>
       <use xlink:href="#DejaVuSans-79" x="975.048828"/>
       <use xlink:href="#DejaVuSans-74" x="1034.228516"/>
       <use xlink:href="#DejaVuSans-65" x="1073.4375"/>
       <use xlink:href="#DejaVuSans-72" x="1134.960938"/>
       <use xlink:href="#DejaVuSans-20" x="1176.074219"/>
       <use xlink:href="#DejaVuSans-6c" x="1207.861328"/>
       <use xlink:href="#DejaVuSans-61" x="1235.644531"/>
       <use xlink:href="#DejaVuSans-62" x="1296.923828"/>
       <use xlink:href="#DejaVuSans-2f" x="1360.400391"/>
       <use xlink:href="#DejaVuSans-6e" x="1394.091797"/>
       <use xlink:href="#DejaVuSans-6f" x="1457.470703"/>
       <use xlink:href="#DejaVuSans-74" x="1518.652344"/>
       <use xlink:href="#DejaVuSans-65" x="1557.861328"/>
       <use xlink:href="#DejaVuSans-62" x="1619.384766"/>
       <use xlink:href="#DejaVuSans-6f" x="1682.861328"/>
       <use xlink:href="#DejaVuSans-6f" x="1744.042969"/>
       <use xlink:href="#DejaVuSans-6b" x="1805.224609"/>
       <use xlink:href="#DejaVuSans-73" x="1863.134766"/>
       <use xlink:href="#DejaVuSans-2c" x="1915.234375"/>
       <use xlink:href="#DejaVuSans-20" x="1947.021484"/>
       <use xlink:href="#DejaVuSans-52" x="1978.808594"/>
      </g>
     </g>
    </g>
    <g id="xtick_4">
     <g id="line2d_4">
      <path d="M 226.756222 151.2 
" style="fill: none; stroke: #000000; stroke-width: 1.5; stroke-linecap: square"/>
      <g>
       <use xlink:href="#m6e54c2d576" x="226.756222" y="151.2" style="stroke: #333333; stroke-width: 0.8"/>
      </g>
     </g>
     <g id="text_4">
      <!-- Visual Code -->
      <g style="fill: #4d4d4d" transform="translate(179.223867 183.814179) rotate(-25) scale(0.088 -0.088)">
       <defs>
        <path id="DejaVuSans-56" d="M 1831 0 
L 50 4666 
L 709 4666 
L 2188 738 
L 3669 4666 
L 4325 4666 
L 2547 0 
L 1831 0 
z
" transform="scale(0.015625)"/>
       </defs>
       <use xlink:href="#DejaVuSans-56"/>
       <use xlink:href="#DejaVuSans-69" x="66.158203"/>
       <use xlink:href="#DejaVuSans-73" x="93.941406"/>
       <use xlink:href="#DejaVuSans-75" x="146.041016"/>
       <use xlink:href="#DejaVuSans-61" x="209.419922"/>
       <use xlink:href="#DejaVuSans-6c" x="270.699219"/>
       <use xlink:href="#DejaVuSans-20" x="298.482422"/>
       <use xlink:href="#DejaVuSans-43" x="330.269531"/>
       <use xlink:href="#DejaVuSans-6f" x="400.09375"/>
       <use xlink:href="#DejaVuSans-64" x="461.275391"/>
       <use xlink:href="#DejaVuSans-65" x="524.751953"/>
      </g>
     </g>
    </g>
    <g id="xtick_5">
     <g id="line2d_5">
      <path d="M 244.317198 151.2 
" style="fill: none; stroke: #000000; stroke-width: 1.5; stroke-linecap: square"/>
      <g>
       <use xlink:href="#m6e54c2d576" x="244.317198" y="151.2" style="stroke: #333333; stroke-width: 0.8"/>
      </g>
     </g>
     <g id="text_5">
      <!-- Visual Code, Matlab -->
      <g style="fill: #4d4d4d" transform="translate(164.653513 198.797264) rotate(-25) scale(0.088 -0.088)">
       <use xlink:href="#DejaVuSans-56"/>
       <use xlink:href="#DejaVuSans-69" x="66.158203"/>
       <use xlink:href="#DejaVuSans-73" x="93.941406"/>
       <use xlink:href="#DejaVuSans-75" x="146.041016"/>
       <use xlink:href="#DejaVuSans-61" x="209.419922"/>
       <use xlink:href="#DejaVuSans-6c" x="270.699219"/>
       <use xlink:href="#DejaVuSans-20" x="298.482422"/>
       <use xlink:href="#DejaVuSans-43" x="330.269531"/>
       <use xlink:href="#DejaVuSans-6f" x="400.09375"/>
       <use xlink:href="#DejaVuSans-64" x="461.275391"/>
       <use xlink:href="#DejaVuSans-65" x="524.751953"/>
       <use xlink:href="#DejaVuSans-2c" x="586.275391"/>
       <use xlink:href="#DejaVuSans-20" x="618.0625"/>
       <use xlink:href="#DejaVuSans-4d" x="649.849609"/>
       <use xlink:href="#DejaVuSans-61" x="736.128906"/>
       <use xlink:href="#DejaVuSans-74" x="797.408203"/>
       <use xlink:href="#DejaVuSans-6c" x="836.617188"/>
       <use xlink:href="#DejaVuSans-61" x="864.400391"/>
       <use xlink:href="#DejaVuSans-62" x="925.679688"/>
      </g>
     </g>
    </g>
    <g id="xtick_6">
     <g id="line2d_6">
      <path d="M 261.878174 151.2 
" style="fill: none; stroke: #000000; stroke-width: 1.5; stroke-linecap: square"/>
      <g>
       <use xlink:href="#m6e54c2d576" x="261.878174" y="151.2" style="stroke: #333333; stroke-width: 0.8"/>
      </g>
     </g>
     <g id="text_6">
      <!-- Visual Code, Matlab, Jupyter lab/notebooks -->
      <g style="fill: #4d4d4d" transform="translate(89.68862 241.942785) rotate(-25) scale(0.088 -0.088)">
       <use xlink:href="#DejaVuSans-56"/>
       <use xlink:href="#DejaVuSans-69" x="66.158203"/>
       <use xlink:href="#DejaVuSans-73" x="93.941406"/>
       <use xlink:href="#DejaVuSans-75" x="146.041016"/>
       <use xlink:href="#DejaVuSans-61" x="209.419922"/>
       <use xlink:href="#DejaVuSans-6c" x="270.699219"/>
       <use xlink:href="#DejaVuSans-20" x="298.482422"/>
       <use xlink:href="#DejaVuSans-43" x="330.269531"/>
       <use xlink:href="#DejaVuSans-6f" x="400.09375"/>
       <use xlink:href="#DejaVuSans-64" x="461.275391"/>
       <use xlink:href="#DejaVuSans-65" x="524.751953"/>
       <use xlink:href="#DejaVuSans-2c" x="586.275391"/>
       <use xlink:href="#DejaVuSans-20" x="618.0625"/>
       <use xlink:href="#DejaVuSans-4d" x="649.849609"/>
       <use xlink:href="#DejaVuSans-61" x="736.128906"/>
       <use xlink:href="#DejaVuSans-74" x="797.408203"/>
       <use xlink:href="#DejaVuSans-6c" x="836.617188"/>
       <use xlink:href="#DejaVuSans-61" x="864.400391"/>
       <use xlink:href="#DejaVuSans-62" x="925.679688"/>
       <use xlink:href="#DejaVuSans-2c" x="989.15625"/>
       <use xlink:href="#DejaVuSans-20" x="1020.943359"/>
       <use xlink:href="#DejaVuSans-4a" x="1052.730469"/>
       <use xlink:href="#DejaVuSans-75" x="1082.222656"/>
       <use xlink:href="#DejaVuSans-70" x="1145.601562"/>
       <use xlink:href="#DejaVuSans-79" x="1209.078125"/>
       <use xlink:href="#DejaVuSans-74" x="1268.257812"/>
       <use xlink:href="#DejaVuSans-65" x="1307.466797"/>
       <use xlink:href="#DejaVuSans-72" x="1368.990234"/>
       <use xlink:href="#DejaVuSans-20" x="1410.103516"/>
       <use xlink:href="#DejaVuSans-6c" x="1441.890625"/>
       <use xlink:href="#DejaVuSans-61" x="1469.673828"/>
       <use xlink:href="#DejaVuSans-62" x="1530.953125"/>
       <use xlink:href="#DejaVuSans-2f" x="1594.429688"/>
       <use xlink:href="#DejaVuSans-6e" x="1628.121094"/>
       <use xlink:href="#DejaVuSans-6f" x="1691.5"/>
       <use xlink:href="#DejaVuSans-74" x="1752.681641"/>
       <use xlink:href="#DejaVuSans-65" x="1791.890625"/>
       <use xlink:href="#DejaVuSans-62" x="1853.414062"/>
       <use xlink:href="#DejaVuSans-6f" x="1916.890625"/>
       <use xlink:href="#DejaVuSans-6f" x="1978.072266"/>
       <use xlink:href="#DejaVuSans-6b" x="2039.253906"/>
       <use xlink:href="#DejaVuSans-73" x="2097.164062"/>
      </g>
     </g>
    </g>
    <g id="xtick_7">
     <g id="line2d_7">
      <path d="M 279.439149 151.2 
" style="fill: none; stroke: #000000; stroke-width: 1.5; stroke-linecap: square"/>
      <g>
       <use xlink:href="#m6e54c2d576" x="279.439149" y="151.2" style="stroke: #333333; stroke-width: 0.8"/>
      </g>
     </g>
     <g id="text_7">
      <!-- Visual Code, Spyder, Matlab, Jupyter lab/notebooks -->
      <g style="fill: #4d4d4d" transform="translate(74.083942 257.408183) rotate(-25) scale(0.088 -0.088)">
       <use xlink:href="#DejaVuSans-56"/>
       <use xlink:href="#DejaVuSans-69" x="66.158203"/>
       <use xlink:href="#DejaVuSans-73" x="93.941406"/>
       <use xlink:href="#DejaVuSans-75" x="146.041016"/>
       <use xlink:href="#DejaVuSans-61" x="209.419922"/>
       <use xlink:href="#DejaVuSans-6c" x="270.699219"/>
       <use xlink:href="#DejaVuSans-20" x="298.482422"/>
       <use xlink:href="#DejaVuSans-43" x="330.269531"/>
       <use xlink:href="#DejaVuSans-6f" x="400.09375"/>
       <use xlink:href="#DejaVuSans-64" x="461.275391"/>
       <use xlink:href="#DejaVuSans-65" x="524.751953"/>
       <use xlink:href="#DejaVuSans-2c" x="586.275391"/>
       <use xlink:href="#DejaVuSans-20" x="618.0625"/>
       <use xlink:href="#DejaVuSans-53" x="649.849609"/>
       <use xlink:href="#DejaVuSans-70" x="713.326172"/>
       <use xlink:href="#DejaVuSans-79" x="776.802734"/>
       <use xlink:href="#DejaVuSans-64" x="835.982422"/>
       <use xlink:href="#DejaVuSans-65" x="899.458984"/>
       <use xlink:href="#DejaVuSans-72" x="960.982422"/>
       <use xlink:href="#DejaVuSans-2c" x="1002.095703"/>
       <use xlink:href="#DejaVuSans-20" x="1033.882812"/>
       <use xlink:href="#DejaVuSans-4d" x="1065.669922"/>
       <use xlink:href="#DejaVuSans-61" x="1151.949219"/>
       <use xlink:href="#DejaVuSans-74" x="1213.228516"/>
       <use xlink:href="#DejaVuSans-6c" x="1252.4375"/>
       <use xlink:href="#DejaVuSans-61" x="1280.220703"/>
       <use xlink:href="#DejaVuSans-62" x="1341.5"/>
       <use xlink:href="#DejaVuSans-2c" x="1404.976562"/>
       <use xlink:href="#DejaVuSans-20" x="1436.763672"/>
       <use xlink:href="#DejaVuSans-4a" x="1468.550781"/>
       <use xlink:href="#DejaVuSans-75" x="1498.042969"/>
       <use xlink:href="#DejaVuSans-70" x="1561.421875"/>
       <use xlink:href="#DejaVuSans-79" x="1624.898438"/>
       <use xlink:href="#DejaVuSans-74" x="1684.078125"/>
       <use xlink:href="#DejaVuSans-65" x="1723.287109"/>
       <use xlink:href="#DejaVuSans-72" x="1784.810547"/>
       <use xlink:href="#DejaVuSans-20" x="1825.923828"/>
       <use xlink:href="#DejaVuSans-6c" x="1857.710938"/>
       <use xlink:href="#DejaVuSans-61" x="1885.494141"/>
       <use xlink:href="#DejaVuSans-62" x="1946.773438"/>
       <use xlink:href="#DejaVuSans-2f" x="2010.25"/>
       <use xlink:href="#DejaVuSans-6e" x="2043.941406"/>
       <use xlink:href="#DejaVuSans-6f" x="2107.320312"/>
       <use xlink:href="#DejaVuSans-74" x="2168.501953"/>
       <use xlink:href="#DejaVuSans-65" x="2207.710938"/>
       <use xlink:href="#DejaVuSans-62" x="2269.234375"/>
       <use xlink:href="#DejaVuSans-6f" x="2332.710938"/>
       <use xlink:href="#DejaVuSans-6f" x="2393.892578"/>
       <use xlink:href="#DejaVuSans-6b" x="2455.074219"/>
       <use xlink:href="#DejaVuSans-73" x="2512.984375"/>
      </g>
     </g>
    </g>
    <g id="xtick_8">
     <g id="line2d_8">
      <path d="M 297.000125 151.2 
" style="fill: none; stroke: #000000; stroke-width: 1.5; stroke-linecap: square"/>
      <g>
       <use xlink:href="#m6e54c2d576" x="297.000125" y="151.2" style="stroke: #333333; stroke-width: 0.8"/>
      </g>
     </g>
     <g id="text_8">
      <!-- Visual Code, VSCodium, VIM -->
      <g style="fill: #4d4d4d" transform="translate(183.568884 214.543334) rotate(-25) scale(0.088 -0.088)">
       <use xlink:href="#DejaVuSans-56"/>
       <use xlink:href="#DejaVuSans-69" x="66.158203"/>
       <use xlink:href="#DejaVuSans-73" x="93.941406"/>
       <use xlink:href="#DejaVuSans-75" x="146.041016"/>
       <use xlink:href="#DejaVuSans-61" x="209.419922"/>
       <use xlink:href="#DejaVuSans-6c" x="270.699219"/>
       <use xlink:href="#DejaVuSans-20" x="298.482422"/>
       <use xlink:href="#DejaVuSans-43" x="330.269531"/>
       <use xlink:href="#DejaVuSans-6f" x="400.09375"/>
       <use xlink:href="#DejaVuSans-64" x="461.275391"/>
       <use xlink:href="#DejaVuSans-65" x="524.751953"/>
       <use xlink:href="#DejaVuSans-2c" x="586.275391"/>
       <use xlink:href="#DejaVuSans-20" x="618.0625"/>
       <use xlink:href="#DejaVuSans-56" x="649.849609"/>
       <use xlink:href="#DejaVuSans-53" x="718.257812"/>
       <use xlink:href="#DejaVuSans-43" x="781.734375"/>
       <use xlink:href="#DejaVuSans-6f" x="851.558594"/>
       <use xlink:href="#DejaVuSans-64" x="912.740234"/>
       <use xlink:href="#DejaVuSans-69" x="976.216797"/>
       <use xlink:href="#DejaVuSans-75" x="1004"/>
       <use xlink:href="#DejaVuSans-6d" x="1067.378906"/>
       <use xlink:href="#DejaVuSans-2c" x="1164.791016"/>
       <use xlink:href="#DejaVuSans-20" x="1196.578125"/>
       <use xlink:href="#DejaVuSans-56" x="1228.365234"/>
       <use xlink:href="#DejaVuSans-49" x="1296.773438"/>
       <use xlink:href="#DejaVuSans-4d" x="1326.265625"/>
      </g>
     </g>
    </g>
    <g id="text_9">
     <!-- codeEditor -->
     <g transform="translate(203.308273 269.471215) scale(0.12 -0.12)">
      <defs>
       <path id="DejaVuSans-63" d="M 3122 3366 
L 3122 2828 
Q 2878 2963 2633 3030 
Q 2388 3097 2138 3097 
Q 1578 3097 1268 2742 
Q 959 2388 959 1747 
Q 959 1106 1268 751 
Q 1578 397 2138 397 
Q 2388 397 2633 464 
Q 2878 531 3122 666 
L 3122 134 
Q 2881 22 2623 -34 
Q 2366 -91 2075 -91 
Q 1284 -91 818 406 
Q 353 903 353 1747 
Q 353 2603 823 3093 
Q 1294 3584 2113 3584 
Q 2378 3584 2631 3529 
Q 2884 3475 3122 3366 
z
" transform="scale(0.015625)"/>
       <path id="DejaVuSans-45" d="M 628 4666 
L 3578 4666 
L 3578 4134 
L 1259 4134 
L 1259 2753 
L 3481 2753 
L 3481 2222 
L 1259 2222 
L 1259 531 
L 3634 531 
L 3634 0 
L 628 0 
L 628 4666 
z
" transform="scale(0.015625)"/>
      </defs>
      <use xlink:href="#DejaVuSans-63"/>
      <use xlink:href="#DejaVuSans-6f" x="54.980469"/>
      <use xlink:href="#DejaVuSans-64" x="116.162109"/>
      <use xlink:href="#DejaVuSans-65" x="179.638672"/>
      <use xlink:href="#DejaVuSans-45" x="241.162109"/>
      <use xlink:href="#DejaVuSans-64" x="304.345703"/>
      <use xlink:href="#DejaVuSans-69" x="367.822266"/>
      <use xlink:href="#DejaVuSans-74" x="395.605469"/>
      <use xlink:href="#DejaVuSans-6f" x="434.814453"/>
      <use xlink:href="#DejaVuSans-72" x="495.996094"/>
     </g>
    </g>
   </g>
   <g id="matplotlib.axis_2">
    <g id="ytick_1">
     <g id="line2d_9">
      <path d="M 163.53671 144.654545 
" style="fill: none; stroke: #000000; stroke-width: 1.5; stroke-linecap: square"/>
      <defs>
       <path id="m0aafd0151b" d="M 0 0 
L -2.75 0 
" style="stroke: #333333; stroke-width: 0.8"/>
      </defs>
      <g>
       <use xlink:href="#m0aafd0151b" x="163.53671" y="144.654545" style="stroke: #333333; stroke-width: 0.8"/>
      </g>
     </g>
     <g id="text_10">
      <!-- 0 -->
      <g style="fill: #4d4d4d" transform="translate(153.18771 147.082795) scale(0.088 -0.088)">
       <defs>
        <path id="DejaVuSans-30" d="M 2034 4250 
Q 1547 4250 1301 3770 
Q 1056 3291 1056 2328 
Q 1056 1369 1301 889 
Q 1547 409 2034 409 
Q 2525 409 2770 889 
Q 3016 1369 3016 2328 
Q 3016 3291 2770 3770 
Q 2525 4250 2034 4250 
z
M 2034 4750 
Q 2819 4750 3233 4129 
Q 3647 3509 3647 2328 
Q 3647 1150 3233 529 
Q 2819 -91 2034 -91 
Q 1250 -91 836 529 
Q 422 1150 422 2328 
Q 422 3509 836 4129 
Q 1250 4750 2034 4750 
z
" transform="scale(0.015625)"/>
       </defs>
       <use xlink:href="#DejaVuSans-30"/>
      </g>
     </g>
    </g>
    <g id="ytick_2">
     <g id="line2d_10">
      <path d="M 163.53671 101.018182 
" style="fill: none; stroke: #000000; stroke-width: 1.5; stroke-linecap: square"/>
      <g>
       <use xlink:href="#m0aafd0151b" x="163.53671" y="101.018182" style="stroke: #333333; stroke-width: 0.8"/>
      </g>
     </g>
     <g id="text_11">
      <!-- 1 -->
      <g style="fill: #4d4d4d" transform="translate(153.18771 103.446432) scale(0.088 -0.088)">
       <defs>
        <path id="DejaVuSans-31" d="M 794 531 
L 1825 531 
L 1825 4091 
L 703 3866 
L 703 4441 
L 1819 4666 
L 2450 4666 
L 2450 531 
L 3481 531 
L 3481 0 
L 794 0 
L 794 531 
z
" transform="scale(0.015625)"/>
       </defs>
       <use xlink:href="#DejaVuSans-31"/>
      </g>
     </g>
    </g>
    <g id="ytick_3">
     <g id="line2d_11">
      <path d="M 163.53671 57.381818 
" style="fill: none; stroke: #000000; stroke-width: 1.5; stroke-linecap: square"/>
      <g>
       <use xlink:href="#m0aafd0151b" x="163.53671" y="57.381818" style="stroke: #333333; stroke-width: 0.8"/>
      </g>
     </g>
     <g id="text_12">
      <!-- 2 -->
      <g style="fill: #4d4d4d" transform="translate(153.18771 59.810068) scale(0.088 -0.088)">
       <defs>
        <path id="DejaVuSans-32" d="M 1228 531 
L 3431 531 
L 3431 0 
L 469 0 
L 469 531 
Q 828 903 1448 1529 
Q 2069 2156 2228 2338 
Q 2531 2678 2651 2914 
Q 2772 3150 2772 3378 
Q 2772 3750 2511 3984 
Q 2250 4219 1831 4219 
Q 1534 4219 1204 4116 
Q 875 4013 500 3803 
L 500 4441 
Q 881 4594 1212 4672 
Q 1544 4750 1819 4750 
Q 2544 4750 2975 4387 
Q 3406 4025 3406 3419 
Q 3406 3131 3298 2873 
Q 3191 2616 2906 2266 
Q 2828 2175 2409 1742 
Q 1991 1309 1228 531 
z
" transform="scale(0.015625)"/>
       </defs>
       <use xlink:href="#DejaVuSans-32"/>
      </g>
     </g>
    </g>
    <g id="ytick_4">
     <g id="line2d_12">
      <path d="M 163.53671 13.745455 
" style="fill: none; stroke: #000000; stroke-width: 1.5; stroke-linecap: square"/>
      <g>
       <use xlink:href="#m0aafd0151b" x="163.53671" y="13.745455" style="stroke: #333333; stroke-width: 0.8"/>
      </g>
     </g>
     <g id="text_13">
      <!-- 3 -->
      <g style="fill: #4d4d4d" transform="translate(153.18771 16.173705) scale(0.088 -0.088)">
       <defs>
        <path id="DejaVuSans-33" d="M 2597 2516 
Q 3050 2419 3304 2112 
Q 3559 1806 3559 1356 
Q 3559 666 3084 287 
Q 2609 -91 1734 -91 
Q 1441 -91 1130 -33 
Q 819 25 488 141 
L 488 750 
Q 750 597 1062 519 
Q 1375 441 1716 441 
Q 2309 441 2620 675 
Q 2931 909 2931 1356 
Q 2931 1769 2642 2001 
Q 2353 2234 1838 2234 
L 1294 2234 
L 1294 2753 
L 1863 2753 
Q 2328 2753 2575 2939 
Q 2822 3125 2822 3475 
Q 2822 3834 2567 4026 
Q 2313 4219 1838 4219 
Q 1578 4219 1281 4162 
Q 984 4106 628 3988 
L 628 4550 
Q 988 4650 1302 4700 
Q 1616 4750 1894 4750 
Q 2613 4750 3031 4423 
Q 3450 4097 3450 3541 
Q 3450 3153 3228 2886 
Q 3006 2619 2597 2516 
z
" transform="scale(0.015625)"/>
       </defs>
       <use xlink:href="#DejaVuSans-33"/>
      </g>
     </g>
    </g>
    <g id="ytick_5"/>
    <g id="ytick_6"/>
    <g id="ytick_7"/>
    <g id="text_14">
     <!-- count -->
     <g transform="translate(145.59896 96.1275) rotate(-90) scale(0.12 -0.12)">
      <use xlink:href="#DejaVuSans-63"/>
      <use xlink:href="#DejaVuSans-6f" x="54.980469"/>
      <use xlink:href="#DejaVuSans-75" x="116.162109"/>
      <use xlink:href="#DejaVuSans-6e" x="179.541016"/>
      <use xlink:href="#DejaVuSans-74" x="242.919922"/>
     </g>
    </g>
   </g>
   <g id="patch_3">
    <path d="M 163.53671 151.2 
L 163.53671 7.2 
" style="fill: none; stroke: #000000; stroke-linejoin: miter; stroke-linecap: square"/>
   </g>
   <g id="patch_4">
    <path d="M 163.53671 151.2 
L 307.53671 151.2 
" style="fill: none; stroke: #000000; stroke-linejoin: miter; stroke-linecap: square"/>
   </g>
   <g id="PolyCollection_1">
    <path d="M 165.292808 144.654545 
L 165.292808 144.654545 
L 182.853783 144.654545 
L 182.853783 144.654545 
z
" clip-path="url(#pf0e87ec8f7)" style="fill: #595959"/>
    <path d="M 165.292808 144.654545 
L 165.292808 144.654545 
L 182.853783 144.654545 
L 182.853783 144.654545 
z
" clip-path="url(#pf0e87ec8f7)" style="fill: #595959"/>
    <path d="M 165.292808 144.654545 
L 165.292808 144.654545 
L 182.853783 144.654545 
L 182.853783 144.654545 
z
" clip-path="url(#pf0e87ec8f7)" style="fill: #595959"/>
    <path d="M 165.292808 144.654545 
L 165.292808 144.654545 
L 182.853783 144.654545 
L 182.853783 144.654545 
z
" clip-path="url(#pf0e87ec8f7)" style="fill: #595959"/>
    <path d="M 165.292808 144.654545 
L 165.292808 144.654545 
L 182.853783 144.654545 
L 182.853783 144.654545 
z
" clip-path="url(#pf0e87ec8f7)" style="fill: #595959"/>
    <path d="M 165.292808 144.654545 
L 165.292808 144.654545 
L 182.853783 144.654545 
L 182.853783 144.654545 
z
" clip-path="url(#pf0e87ec8f7)" style="fill: #595959"/>
    <path d="M 165.292808 144.654545 
L 165.292808 144.654545 
L 182.853783 144.654545 
L 182.853783 144.654545 
z
" clip-path="url(#pf0e87ec8f7)" style="fill: #595959"/>
    <path d="M 165.292808 144.654545 
L 165.292808 101.018182 
L 182.853783 101.018182 
L 182.853783 144.654545 
z
" clip-path="url(#pf0e87ec8f7)" style="fill: #595959"/>
    <path d="M 182.853783 144.654545 
L 182.853783 144.654545 
L 200.414759 144.654545 
L 200.414759 144.654545 
z
" clip-path="url(#pf0e87ec8f7)" style="fill: #595959"/>
    <path d="M 182.853783 144.654545 
L 182.853783 144.654545 
L 200.414759 144.654545 
L 200.414759 144.654545 
z
" clip-path="url(#pf0e87ec8f7)" style="fill: #595959"/>
    <path d="M 182.853783 144.654545 
L 182.853783 144.654545 
L 200.414759 144.654545 
L 200.414759 144.654545 
z
" clip-path="url(#pf0e87ec8f7)" style="fill: #595959"/>
    <path d="M 182.853783 144.654545 
L 182.853783 144.654545 
L 200.414759 144.654545 
L 200.414759 144.654545 
z
" clip-path="url(#pf0e87ec8f7)" style="fill: #595959"/>
    <path d="M 182.853783 144.654545 
L 182.853783 144.654545 
L 200.414759 144.654545 
L 200.414759 144.654545 
z
" clip-path="url(#pf0e87ec8f7)" style="fill: #595959"/>
    <path d="M 182.853783 144.654545 
L 182.853783 144.654545 
L 200.414759 144.654545 
L 200.414759 144.654545 
z
" clip-path="url(#pf0e87ec8f7)" style="fill: #595959"/>
    <path d="M 182.853783 144.654545 
L 182.853783 13.745455 
L 200.414759 13.745455 
L 200.414759 144.654545 
z
" clip-path="url(#pf0e87ec8f7)" style="fill: #595959"/>
    <path d="M 182.853783 13.745455 
L 182.853783 13.745455 
L 200.414759 13.745455 
L 200.414759 13.745455 
z
" clip-path="url(#pf0e87ec8f7)" style="fill: #595959"/>
    <path d="M 200.414759 144.654545 
L 200.414759 144.654545 
L 217.975735 144.654545 
L 217.975735 144.654545 
z
" clip-path="url(#pf0e87ec8f7)" style="fill: #595959"/>
    <path d="M 200.414759 144.654545 
L 200.414759 144.654545 
L 217.975735 144.654545 
L 217.975735 144.654545 
z
" clip-path="url(#pf0e87ec8f7)" style="fill: #595959"/>
    <path d="M 200.414759 144.654545 
L 200.414759 144.654545 
L 217.975735 144.654545 
L 217.975735 144.654545 
z
" clip-path="url(#pf0e87ec8f7)" style="fill: #595959"/>
    <path d="M 200.414759 144.654545 
L 200.414759 144.654545 
L 217.975735 144.654545 
L 217.975735 144.654545 
z
" clip-path="url(#pf0e87ec8f7)" style="fill: #595959"/>
    <path d="M 200.414759 144.654545 
L 200.414759 144.654545 
L 217.975735 144.654545 
L 217.975735 144.654545 
z
" clip-path="url(#pf0e87ec8f7)" style="fill: #595959"/>
    <path d="M 200.414759 144.654545 
L 200.414759 101.018182 
L 217.975735 101.018182 
L 217.975735 144.654545 
z
" clip-path="url(#pf0e87ec8f7)" style="fill: #595959"/>
    <path d="M 200.414759 101.018182 
L 200.414759 101.018182 
L 217.975735 101.018182 
L 217.975735 101.018182 
z
" clip-path="url(#pf0e87ec8f7)" style="fill: #595959"/>
    <path d="M 200.414759 101.018182 
L 200.414759 101.018182 
L 217.975735 101.018182 
L 217.975735 101.018182 
z
" clip-path="url(#pf0e87ec8f7)" style="fill: #595959"/>
    <path d="M 217.975735 144.654545 
L 217.975735 144.654545 
L 235.53671 144.654545 
L 235.53671 144.654545 
z
" clip-path="url(#pf0e87ec8f7)" style="fill: #595959"/>
    <path d="M 217.975735 144.654545 
L 217.975735 144.654545 
L 235.53671 144.654545 
L 235.53671 144.654545 
z
" clip-path="url(#pf0e87ec8f7)" style="fill: #595959"/>
    <path d="M 217.975735 144.654545 
L 217.975735 144.654545 
L 235.53671 144.654545 
L 235.53671 144.654545 
z
" clip-path="url(#pf0e87ec8f7)" style="fill: #595959"/>
    <path d="M 217.975735 144.654545 
L 217.975735 144.654545 
L 235.53671 144.654545 
L 235.53671 144.654545 
z
" clip-path="url(#pf0e87ec8f7)" style="fill: #595959"/>
    <path d="M 217.975735 144.654545 
L 217.975735 101.018182 
L 235.53671 101.018182 
L 235.53671 144.654545 
z
" clip-path="url(#pf0e87ec8f7)" style="fill: #595959"/>
    <path d="M 217.975735 101.018182 
L 217.975735 101.018182 
L 235.53671 101.018182 
L 235.53671 101.018182 
z
" clip-path="url(#pf0e87ec8f7)" style="fill: #595959"/>
    <path d="M 217.975735 101.018182 
L 217.975735 101.018182 
L 235.53671 101.018182 
L 235.53671 101.018182 
z
" clip-path="url(#pf0e87ec8f7)" style="fill: #595959"/>
    <path d="M 217.975735 101.018182 
L 217.975735 101.018182 
L 235.53671 101.018182 
L 235.53671 101.018182 
z
" clip-path="url(#pf0e87ec8f7)" style="fill: #595959"/>
    <path d="M 235.53671 144.654545 
L 235.53671 144.654545 
L 253.097686 144.654545 
L 253.097686 144.654545 
z
" clip-path="url(#pf0e87ec8f7)" style="fill: #595959"/>
    <path d="M 235.53671 144.654545 
L 235.53671 144.654545 
L 253.097686 144.654545 
L 253.097686 144.654545 
z
" clip-path="url(#pf0e87ec8f7)" style="fill: #595959"/>
    <path d="M 235.53671 144.654545 
L 235.53671 144.654545 
L 253.097686 144.654545 
L 253.097686 144.654545 
z
" clip-path="url(#pf0e87ec8f7)" style="fill: #595959"/>
    <path d="M 235.53671 144.654545 
L 235.53671 101.018182 
L 253.097686 101.018182 
L 253.097686 144.654545 
z
" clip-path="url(#pf0e87ec8f7)" style="fill: #595959"/>
    <path d="M 235.53671 101.018182 
L 235.53671 101.018182 
L 253.097686 101.018182 
L 253.097686 101.018182 
z
" clip-path="url(#pf0e87ec8f7)" style="fill: #595959"/>
    <path d="M 235.53671 101.018182 
L 235.53671 101.018182 
L 253.097686 101.018182 
L 253.097686 101.018182 
z
" clip-path="url(#pf0e87ec8f7)" style="fill: #595959"/>
    <path d="M 235.53671 101.018182 
L 235.53671 101.018182 
L 253.097686 101.018182 
L 253.097686 101.018182 
z
" clip-path="url(#pf0e87ec8f7)" style="fill: #595959"/>
    <path d="M 235.53671 101.018182 
L 235.53671 101.018182 
L 253.097686 101.018182 
L 253.097686 101.018182 
z
" clip-path="url(#pf0e87ec8f7)" style="fill: #595959"/>
    <path d="M 253.097686 144.654545 
L 253.097686 144.654545 
L 270.658661 144.654545 
L 270.658661 144.654545 
z
" clip-path="url(#pf0e87ec8f7)" style="fill: #595959"/>
    <path d="M 253.097686 144.654545 
L 253.097686 144.654545 
L 270.658661 144.654545 
L 270.658661 144.654545 
z
" clip-path="url(#pf0e87ec8f7)" style="fill: #595959"/>
    <path d="M 253.097686 144.654545 
L 253.097686 57.381818 
L 270.658661 57.381818 
L 270.658661 144.654545 
z
" clip-path="url(#pf0e87ec8f7)" style="fill: #595959"/>
    <path d="M 253.097686 57.381818 
L 253.097686 57.381818 
L 270.658661 57.381818 
L 270.658661 57.381818 
z
" clip-path="url(#pf0e87ec8f7)" style="fill: #595959"/>
    <path d="M 253.097686 57.381818 
L 253.097686 57.381818 
L 270.658661 57.381818 
L 270.658661 57.381818 
z
" clip-path="url(#pf0e87ec8f7)" style="fill: #595959"/>
    <path d="M 253.097686 57.381818 
L 253.097686 57.381818 
L 270.658661 57.381818 
L 270.658661 57.381818 
z
" clip-path="url(#pf0e87ec8f7)" style="fill: #595959"/>
    <path d="M 253.097686 57.381818 
L 253.097686 57.381818 
L 270.658661 57.381818 
L 270.658661 57.381818 
z
" clip-path="url(#pf0e87ec8f7)" style="fill: #595959"/>
    <path d="M 253.097686 57.381818 
L 253.097686 57.381818 
L 270.658661 57.381818 
L 270.658661 57.381818 
z
" clip-path="url(#pf0e87ec8f7)" style="fill: #595959"/>
    <path d="M 270.658661 144.654545 
L 270.658661 144.654545 
L 288.219637 144.654545 
L 288.219637 144.654545 
z
" clip-path="url(#pf0e87ec8f7)" style="fill: #595959"/>
    <path d="M 270.658661 144.654545 
L 270.658661 101.018182 
L 288.219637 101.018182 
L 288.219637 144.654545 
z
" clip-path="url(#pf0e87ec8f7)" style="fill: #595959"/>
    <path d="M 270.658661 101.018182 
L 270.658661 101.018182 
L 288.219637 101.018182 
L 288.219637 101.018182 
z
" clip-path="url(#pf0e87ec8f7)" style="fill: #595959"/>
    <path d="M 270.658661 101.018182 
L 270.658661 101.018182 
L 288.219637 101.018182 
L 288.219637 101.018182 
z
" clip-path="url(#pf0e87ec8f7)" style="fill: #595959"/>
    <path d="M 270.658661 101.018182 
L 270.658661 101.018182 
L 288.219637 101.018182 
L 288.219637 101.018182 
z
" clip-path="url(#pf0e87ec8f7)" style="fill: #595959"/>
    <path d="M 270.658661 101.018182 
L 270.658661 101.018182 
L 288.219637 101.018182 
L 288.219637 101.018182 
z
" clip-path="url(#pf0e87ec8f7)" style="fill: #595959"/>
    <path d="M 270.658661 101.018182 
L 270.658661 101.018182 
L 288.219637 101.018182 
L 288.219637 101.018182 
z
" clip-path="url(#pf0e87ec8f7)" style="fill: #595959"/>
    <path d="M 270.658661 101.018182 
L 270.658661 101.018182 
L 288.219637 101.018182 
L 288.219637 101.018182 
z
" clip-path="url(#pf0e87ec8f7)" style="fill: #595959"/>
    <path d="M 288.219637 144.654545 
L 288.219637 101.018182 
L 305.780613 101.018182 
L 305.780613 144.654545 
z
" clip-path="url(#pf0e87ec8f7)" style="fill: #595959"/>
    <path d="M 288.219637 101.018182 
L 288.219637 101.018182 
L 305.780613 101.018182 
L 305.780613 101.018182 
z
" clip-path="url(#pf0e87ec8f7)" style="fill: #595959"/>
    <path d="M 288.219637 101.018182 
L 288.219637 101.018182 
L 305.780613 101.018182 
L 305.780613 101.018182 
z
" clip-path="url(#pf0e87ec8f7)" style="fill: #595959"/>
    <path d="M 288.219637 101.018182 
L 288.219637 101.018182 
L 305.780613 101.018182 
L 305.780613 101.018182 
z
" clip-path="url(#pf0e87ec8f7)" style="fill: #595959"/>
    <path d="M 288.219637 101.018182 
L 288.219637 101.018182 
L 305.780613 101.018182 
L 305.780613 101.018182 
z
" clip-path="url(#pf0e87ec8f7)" style="fill: #595959"/>
    <path d="M 288.219637 101.018182 
L 288.219637 101.018182 
L 305.780613 101.018182 
L 305.780613 101.018182 
z
" clip-path="url(#pf0e87ec8f7)" style="fill: #595959"/>
    <path d="M 288.219637 101.018182 
L 288.219637 101.018182 
L 305.780613 101.018182 
L 305.780613 101.018182 
z
" clip-path="url(#pf0e87ec8f7)" style="fill: #595959"/>
    <path d="M 288.219637 101.018182 
L 288.219637 101.018182 
L 305.780613 101.018182 
L 305.780613 101.018182 
z
" clip-path="url(#pf0e87ec8f7)" style="fill: #595959"/>
   </g>
  </g>
  <g id="axes_2">
   <g id="patch_5">
    <path d="M 7.2 252.985742 
L 228.33671 252.985742 
L 228.33671 85.485 
L 7.2 85.485 
L 7.2 252.985742 
z
" style="fill: none; opacity: 0"/>
   </g>
   <g id="matplotlib.axis_3"/>
   <g id="matplotlib.axis_4"/>
  </g>
 </g>
 <defs>
  <clipPath id="pf0e87ec8f7">
   <rect x="163.53671" y="7.2" width="144" height="144"/>
  </clipPath>
 </defs>
</svg>
